<svg width="16" height="16" viewBox="0 0 16 16" fill="none" xmlns="http://www.w3.org/2000/svg">
<path d="M8 12.6668C7.91226 12.6673 7.82528 12.6505 7.74406 12.6173C7.66284 12.5842 7.58896 12.5353 7.52666 12.4735L3.57333 8.48016C3.50354 8.42039 3.44686 8.34685 3.40685 8.26414C3.36683 8.18143 3.34434 8.09134 3.3408 7.99953C3.33725 7.90771 3.35272 7.81616 3.38624 7.73061C3.41976 7.64506 3.47059 7.56736 3.53556 7.50239C3.60053 7.43742 3.67823 7.38658 3.76378 7.35307C3.84933 7.31955 3.94089 7.30408 4.0327 7.30763C4.12451 7.31117 4.2146 7.33366 4.29731 7.37367C4.38002 7.41369 4.45357 7.47037 4.51333 7.54016L8 11.0268L11.4867 7.54016C11.5464 7.47037 11.62 7.41369 11.7027 7.37367C11.7854 7.33366 11.8755 7.31117 11.9673 7.30763C12.0591 7.30408 12.1507 7.31955 12.2362 7.35307C12.3218 7.38658 12.3995 7.43742 12.4644 7.50239C12.5294 7.56736 12.5802 7.64506 12.6138 7.73061C12.6473 7.81616 12.6627 7.90771 12.6592 7.99953C12.6557 8.09134 12.6332 8.18143 12.5931 8.26414C12.5531 8.34685 12.4965 8.42039 12.4267 8.48016L8.47333 12.4402C8.41387 12.508 8.34127 12.5631 8.25991 12.602C8.17855 12.641 8.09013 12.663 8 12.6668Z" fill="#F1416C"/>
<path opacity="0.3" d="M8.00001 12.6667C7.8232 12.6667 7.65363 12.5965 7.52861 12.4715C7.40358 12.3464 7.33334 12.1769 7.33334 12.0001V4.05339C7.33334 3.87657 7.40358 3.70701 7.52861 3.58198C7.65363 3.45696 7.8232 3.38672 8.00001 3.38672C8.17682 3.38672 8.34639 3.45696 8.47141 3.58198C8.59644 3.70701 8.66668 3.87657 8.66668 4.05339V12.0001C8.66668 12.1769 8.59644 12.3464 8.47141 12.4715C8.34639 12.5965 8.17682 12.6667 8.00001 12.6667Z" fill="#F1416C"/>
</svg>
