<svg width="38" height="38" viewBox="0 0 38 38" fill="none" xmlns="http://www.w3.org/2000/svg">
<path opacity="0.3" d="M25.7291 3.1665H12.2708C7.2427 3.1665 3.16663 7.24258 3.16663 12.2707V25.729C3.16663 30.7571 7.2427 34.8332 12.2708 34.8332H25.7291C30.7572 34.8332 34.8333 30.7571 34.8333 25.729V12.2707C34.8333 7.24258 30.7572 3.1665 25.7291 3.1665Z" fill="#A1A5B7"/>
<path d="M19.5858 20.9313C20.7575 20.9313 21.7074 19.9814 21.7074 18.8097C21.7074 17.6379 20.7575 16.688 19.5858 16.688C18.414 16.688 17.4641 17.6379 17.4641 18.8097C17.4641 19.9814 18.414 20.9313 19.5858 20.9313Z" fill="#A1A5B7"/>
<path d="M11.6374 20.9313C12.8092 20.9313 13.7591 19.9814 13.7591 18.8097C13.7591 17.6379 12.8092 16.688 11.6374 16.688C10.4656 16.688 9.51575 17.6379 9.51575 18.8097C9.51575 19.9814 10.4656 20.9313 11.6374 20.9313Z" fill="#A1A5B7"/>
<path d="M27.5183 20.9313C28.69 20.9313 29.6399 19.9814 29.6399 18.8097C29.6399 17.6379 28.69 16.688 27.5183 16.688C26.3465 16.688 25.3966 17.6379 25.3966 18.8097C25.3966 19.9814 26.3465 20.9313 27.5183 20.9313Z" fill="#A1A5B7"/>
</svg>
