<svg width="22" height="22" viewBox="0 0 22 22" fill="none" xmlns="http://www.w3.org/2000/svg">
<path opacity="0.3" d="M10.0833 1.88829C8.65879 2.05479 7.30736 2.60945 6.17658 3.49172C5.0458 4.37398 4.17913 5.54995 3.67118 6.89124C3.16323 8.23252 3.03352 9.68758 3.29623 11.0976C3.55893 12.5075 4.20394 13.8183 5.16084 14.8866L9.16668 19.3325C9.39868 19.5883 9.68165 19.7927 9.99739 19.9326C10.3131 20.0725 10.6547 20.1448 11 20.1448C11.3454 20.1448 11.6869 20.0725 12.0026 19.9326C12.3184 19.7927 12.6013 19.5883 12.8333 19.3325L16.8208 14.8866C17.8758 13.7014 18.5461 12.2239 18.7432 10.6494C18.9403 9.07503 18.6549 7.47787 17.9247 6.06915C17.1945 4.66044 16.0539 3.50653 14.6538 2.76001C13.2537 2.01349 11.6599 1.70952 10.0833 1.88829ZM11 12.6041C10.4177 12.6059 9.84785 12.4349 9.36276 12.1127C8.87766 11.7905 8.49909 11.3315 8.27497 10.794C8.05085 10.2565 7.99127 9.6646 8.10377 9.09321C8.21627 8.52182 8.49579 7.99666 8.90694 7.58423C9.31809 7.17179 9.84237 6.89063 10.4134 6.77635C10.9844 6.66207 11.5766 6.7198 12.1148 6.94224C12.653 7.16468 13.1131 7.54182 13.4368 8.02591C13.7605 8.51 13.9333 9.07926 13.9333 9.66162C13.9333 10.4404 13.6246 11.1875 13.0747 11.7391C12.5249 12.2906 11.7788 12.6017 11 12.6041Z" fill="#A1A5B7"/>
<path d="M11 12.6864C12.7112 12.6864 14.0983 11.2992 14.0983 9.58808C14.0983 7.87692 12.7112 6.48975 11 6.48975C9.28884 6.48975 7.90167 7.87692 7.90167 9.58808C7.90167 11.2992 9.28884 12.6864 11 12.6864Z" fill="#A1A5B7"/>
</svg>
