<svg width="35" height="36" viewBox="0 0 35 36" fill="none" xmlns="http://www.w3.org/2000/svg">
<path opacity="0.3" d="M14.3646 31.4605L7.67083 25.9917C7.09845 25.5295 6.63646 24.9452 6.31858 24.2817C6.00069 23.6182 5.83491 22.8921 5.83333 22.1563V11.4376C5.83387 10.4853 6.1094 9.55352 6.62681 8.75412C7.14422 7.95472 7.88149 7.32176 8.74999 6.93132L15.4583 3.86882C16.1037 3.57367 16.805 3.4209 17.5146 3.4209C18.2242 3.4209 18.9255 3.57367 19.5708 3.86882L26.25 6.93132C27.1185 7.32176 27.8558 7.95472 28.3732 8.75412C28.8906 9.55352 29.1661 10.4853 29.1667 11.4376V22.1563C29.1668 22.8909 29.0033 23.6163 28.688 24.2797C28.3727 24.9432 27.9135 25.528 27.3437 25.9917L20.65 31.4605C19.7661 32.192 18.6547 32.5923 17.5073 32.5923C16.3599 32.5923 15.2485 32.192 14.3646 31.4605Z" fill="#3E97FF"/>
<path d="M20.4167 21.9374C20.2763 21.9388 20.1371 21.9125 20.0069 21.86C19.8768 21.8074 19.7583 21.7296 19.6583 21.6311L13.825 15.929C13.6202 15.7239 13.5051 15.446 13.5051 15.1561C13.5051 14.8663 13.6202 14.5883 13.825 14.3832C14.0344 14.1809 14.3141 14.0679 14.6052 14.0679C14.8963 14.0679 15.176 14.1809 15.3854 14.3832L21.2187 20.0853C21.4236 20.2904 21.5386 20.5683 21.5386 20.8582C21.5386 21.148 21.4236 21.426 21.2187 21.6311C21.1121 21.7329 20.9863 21.8125 20.8486 21.865C20.7108 21.9176 20.564 21.9422 20.4167 21.9374Z" fill="#3E97FF"/>
<path d="M14.5833 21.9377C14.4374 21.9387 14.2927 21.9109 14.1576 21.8559C14.0224 21.8008 13.8995 21.7196 13.7958 21.6169C13.591 21.4118 13.476 21.1338 13.476 20.844C13.476 20.5541 13.591 20.2762 13.7958 20.0711L19.6292 14.369C19.7218 14.234 19.8435 14.1215 19.9854 14.0399C20.1273 13.9582 20.2857 13.9094 20.4489 13.8971C20.6122 13.8848 20.7761 13.9094 20.9286 13.9689C21.0811 14.0284 21.2183 14.1214 21.3301 14.241C21.4419 14.3606 21.5254 14.5038 21.5745 14.6599C21.6236 14.8161 21.6369 14.9813 21.6137 15.1434C21.5904 15.3054 21.531 15.4602 21.4399 15.5962C21.3489 15.7323 21.2284 15.8461 21.0875 15.9294L15.2542 21.6315C15.0714 21.8062 14.835 21.9141 14.5833 21.9377Z" fill="#3E97FF"/>
</svg>
