<svg width="22" height="22" viewBox="0 0 22 22" fill="none" xmlns="http://www.w3.org/2000/svg">
<g opacity="0.3">
<path d="M16.2616 3.2085H5.73831C3.58164 3.2085 1.83331 4.95682 1.83331 7.1135V14.8868C1.83331 17.0435 3.58164 18.7918 5.73831 18.7918H16.2616C18.4183 18.7918 20.1666 17.0435 20.1666 14.8868V7.1135C20.1666 4.95682 18.4183 3.2085 16.2616 3.2085Z" fill="#A1A5B7"/>
</g>
<path d="M11 11.9167C10.2701 11.9138 9.56389 11.6579 9.00166 11.1925L5.88499 8.61669C5.7452 8.49513 5.65942 8.32302 5.64653 8.13822C5.63364 7.95341 5.69469 7.77106 5.81624 7.63127C5.9378 7.49148 6.10991 7.4057 6.29471 7.39281C6.47951 7.37992 6.66187 7.44096 6.80166 7.56252L9.89999 10.1384C10.2156 10.404 10.6149 10.5497 11.0275 10.5497C11.4401 10.5497 11.8394 10.404 12.155 10.1384L15.1708 7.58085C15.3049 7.47572 15.4736 7.42489 15.6435 7.43848C15.8133 7.45207 15.9718 7.52907 16.0875 7.65419C16.2047 7.79359 16.2627 7.97335 16.249 8.15497C16.2353 8.33659 16.151 8.50562 16.0142 8.62585L12.9983 11.1834C12.4393 11.6554 11.7317 11.9151 11 11.9167Z" fill="#A1A5B7"/>
</svg>
