<svg width="20" height="20" viewBox="0 0 20 20" fill="none" xmlns="http://www.w3.org/2000/svg">
<path opacity="0.3" d="M10 19.1668C15.0626 19.1668 19.1667 15.0628 19.1667 10.0002C19.1667 4.93755 15.0626 0.833496 10 0.833496C4.9374 0.833496 0.833344 4.93755 0.833344 10.0002C0.833344 15.0628 4.9374 19.1668 10 19.1668Z" fill="#A1A5B7"/>
<path d="M10 11.7787C11.9238 11.7787 13.4833 10.2191 13.4833 8.29535C13.4833 6.37155 11.9238 4.81201 10 4.81201C8.0762 4.81201 6.51666 6.37155 6.51666 8.29535C6.51666 10.2191 8.0762 11.7787 10 11.7787Z" fill="#A1A5B7"/>
<path d="M10 19.1667C12.1869 19.1691 14.3017 18.385 15.9584 16.9575C15.5288 15.7193 14.7242 14.6457 13.6564 13.8859C12.5886 13.1261 11.3106 12.7178 10 12.7178C8.68946 12.7178 7.41145 13.1261 6.34363 13.8859C5.2758 14.6457 4.47121 15.7193 4.04169 16.9575C5.69834 18.385 7.81316 19.1691 10 19.1667Z" fill="#A1A5B7"/>
</svg>
